# AST/ASF file generated using VICON BodyLanguage
# -----------------------------------------------
:version 1.10
:name VICON
:units
  mass 1.0
  length 0.45
  angle deg
:documentation
   .ast/.asf automatically generated from VICON data using
   VICON BodyBuilder and BodyLanguage model FoxedUp or BRILLIANT.MOD
:root
   order TX TY TZ RX RY RZ
   axis XYZ
   position 0 0 0  
   orientation 0 0 0 
:bonedata
  begin
     id 1 
     name lhipjoint
     direction 0.624716 -0.669793 0.401383 
     length 2.38238 
     axis 0 0 0  XYZ
  end
  begin
     id 2 
     name lfemur
     direction 0.34202 -0.939693 0  
     length 6.4574  
     axis 0 0 20  XYZ
    dof rx ry rz
    limits (-160.0 20.0)
           (-70.0 70.0)
           (-60.0 70.0)
  end
  begin
     id 3 
     name ltibia
     direction 0.34202 -0.939693 0   
     length 7.68739   
     axis 0 0 20   XYZ
    dof rx
    limits (-10.0 170.0)
  end
  begin
     id 4 
     name lfoot
     direction 0.0681309 -0.187188 0.979959   
     length 2.46615   
     axis -90 7.62852e-016 20   XYZ
    dof rx rz
    limits (-45.0 90.0)
           (-70.0 20.0)
  end
  begin
     id 5 
     name ltoes
     direction 1.53566e-011 -4.21819e-011 1   
     length 1.2376   
     axis -90 7.62852e-016 20   XYZ
    dof rx
    limits (-90.0 20.0)
  end
  begin
     id 6 
     name rhipjoint
     direction -0.644473 -0.655875 0.393043   
     length 2.43293  
     axis 0 0 0  XYZ 
  end
  begin
     id 7 
     name rfemur
     direction -0.34202 -0.939693 0   
     length 6.7025   
     axis 0 0 -20   XYZ
    dof rx ry rz
    limits (-160.0 20.0)
           (-70.0 70.0)
           (-70.0 60.0)
  end
  begin
     id 8 
     name rtibia
     direction -0.34202 -0.939693 0   
     length 7.80547   
     axis 0 0 -20   XYZ
    dof rx
    limits (-10.0 170.0)
 end
 begin
     id 9 
     name rfoot
     direction -0.0756734 -0.207911 0.975216   
     length 2.40315  
     axis -90 -7.62852e-016 -20   XYZ
    dof rx rz
    limits (-45.0 90.0)
           (-20.0 70.0)
  end
  begin
     id 10 
     name rtoes
     direction -1.5353e-011 -4.21879e-011 1   
     length 1.20477   
     axis -90 -7.62852e-016 -20   XYZ
    dof rx
    limits (-90.0 20.0)
  end
  begin
     id 11 
     name lowerback
     direction 0.0160353 0.987463 -0.157037   
     length 2.18572   
     axis 0 0 0   XYZ
    dof rx ry rz
    limits (-20.0 45.0)
           (-30.0 30.0)
           (-30.0 30.0)
  end
  begin
     id 12 
     name upperback
     direction -0.00499661 0.999756 0.0215076   
     length 2.18016   
     axis 0 0 0   XYZ
    dof rx ry rz
    limits (-20.0 45.0)
           (-30.0 30.0)
           (-30.0 30.0)
  end
  begin
     id 13 
     name thorax
     direction -0.00921346 0.995333 0.0960619   
     length 2.24923   
     axis 0 0 0   XYZ
    dof rx ry rz
    limits (-20.0 45.0)
           (-30.0 30.0)
           (-30.0 30.0)
  end
  begin
     id 14 
     name lowerneck
     direction 0.0274184 0.991181 0.12965   
     length 1.70911   
     axis 0 0 0   XYZ
    dof rx ry rz
    limits (-20.0 45.0)
           (-30.0 30.0)
           (-30.0 30.0)
  end
  begin
     id 15 
     name upperneck
     direction 0.0015627 0.999959 -0.00893559   
     length 1.69312   
     axis 0 0 0   XYZ
    dof rx ry rz
    limits (-20.0 45.0)
           (-30.0 30.0)
           (-30.0 30.0)
  end
  begin
     id 16
     name head
     direction -0.00230242 0.999856 -0.0168327  
     length 1.80241  
     axis 0 0 0   XYZ
    dof rx ry rz
    limits (-20.0 45.0)
           (-30.0 30.0)
           (-30.0 30.0)
  end
  begin
     id 17 
     name lclavicle
     direction 0.955523 0.290741 -0.0494489  
     length 3.84275  
     axis 0 0 0   XYZ
    dof ry rz
    limits (-20.0 10.0)
           (0.0 20.0)
  end
  begin
     id 18 
     name lhumerus
     direction 1 -4.48967e-011 -3.18382e-028   
     length 5.17714   
     axis 180 -30 -90   XYZ
    dof rx ry rz
    limits (-60.0 90.0)
           (-90.0 90.0)
           (-90.0 90.0)
  end
  begin
     id 19
     name lradius
     direction 1 -4.48968e-011 -2.22911e-027   
     length 3.43679   
     axis 180 -30 -90   XYZ
    dof rx
    limits (-10.0 170.0)
  end
  begin
     id 20
     name lwrist
     direction 1 -4.48951e-011 -6.32245e-027   
     length 1.7184   
     axis 3.57107e-015 90 90   XYZ
    dof ry
    limits (-180.0 0.0)
 end
  begin
     id 21 
     name lhand
     direction 1 -4.48924e-011 -1.26431e-026   
     length 0.573117   
     axis 8.06912e-015 90 90   XYZ
    dof rx rz
    limits (-90.0 90.0)
           (-45.0 45.0)
  end
  begin
     id 22 
     name lfingers
     direction 1 -4.49001e-011 -2.52965e-026   
     length 0.462062   
     axis 1.61381e-014 90 90   XYZ
    dof rx
    limits (0.0 90.0)
  end
  begin
     id 23
     name lthumb
     direction 0.707107 -6.35008e-011 0.707107   
     length 0.663431   
     axis -90 45 -1.62303e-014   XYZ
    dof rx rz
    limits (-45.0 45.0)
           (-45.0 45.0)
  end
  begin
     id 24 
     name rclavicle
     direction -0.963917 0.256881 -0.0698287   
     length 3.73057  
     axis 0 0 0   XYZ 
    dof ry rz
    limits (-10.0 20.0)
           (-20.0 0.0)
  end
  begin
     id 25 
     name rhumerus
     direction -1 -4.48962e-011 -2.73982e-027  
     length 5.23908   
     axis 180 30 90   XYZ
    dof rx ry rz
    limits (-90.0 60.0)
           (-90.0 90.0)
           (-90.0 90.0)
  end
  begin
     id 26 
     name rradius
     direction -1 -4.48968e-011 -4.33218e-027   
     length 3.46485   
     axis 180 30 90   XYZ
    dof rx
    limits (-10.0 170.0)
  end
  begin
     id 27 
     name rwrist
     direction -1 -4.48989e-011 -6.32372e-027   
     length 1.73243   
     axis 3.57107e-015 -90 -90   XYZ
    dof ry
    limits (-180.0 0.0)
  end
  begin
     id 28
     name rhand
     direction -1 -4.48948e-011 -1.26448e-026   
     length 0.608752   
     axis 8.06912e-015 -90 -90   XYZ
    dof rx rz
    limits (-90.0 90.0)
           (-45.0 45.0)
  end
  begin
     id 29
     name rfingers
     direction -1 -4.48962e-011 -2.52913e-026   
     length 0.490792   
     axis 1.61381e-014 -90 -90   XYZ
    dof rx
    limits (0.0 90.0)
  end
  begin
     id 30
     name rthumb
     direction -0.707107 -6.34878e-011 0.707107   
     length 0.704682   
     axis -90 -45 1.62303e-014   XYZ
    dof rx rz
    limits (-45.0 45.0)
           (-45.0 45.0)
  end
:hierarchy
  begin
    root lhipjoint rhipjoint lowerback
    lhipjoint lfemur
    lfemur ltibia
    ltibia lfoot
    lfoot ltoes
    rhipjoint rfemur
    rfemur rtibia
    rtibia rfoot
    rfoot rtoes
    lowerback upperback
    upperback thorax
    thorax lowerneck lclavicle rclavicle
    lowerneck upperneck
    upperneck head
    lclavicle lhumerus
    lhumerus lradius
    lradius lwrist
    lwrist lhand lthumb
    lhand lfingers
    rclavicle rhumerus
    rhumerus rradius
    rradius rwrist
    rwrist rhand rthumb
    rhand rfingers
  end

#!OML:ASF G:\JayActor3\Patient Classification 1\Patient 1\Session 6\male.ASF
:FULLY-SPECIFIED
:DEGREES
1
root 47.7382 15.8809 13.6725 174.788 -47.9926 -177.761
lowerback 0.291391 -1.38197 0.245391
upperback 3.9668 -1.96848 0.53141
thorax 3.92712 -1.02546 0.344889
lowerneck -4.54413 -2.67087 -1.85523
upperneck 7.79285 -4.34956 8.14841
head 3.62508 -1.98664 2.85528
rclavicle 4.51055e-014 -1.03368e-014
rhumerus -30.8965 -5.60177 -84.07
rradius 30.4689
rwrist 0.187583
rhand -18.573 -6.14319
rfingers 7.12502
rthumb 7.71733 -35.9824
lclavicle 4.51055e-014 -1.03368e-014
lhumerus -30.3131 17.8038 80.0172
lradius 24.2112
lwrist 22.2303
lhand -15.5784 7.94276
lfingers 7.12502
lthumb 10.6068 37.6551
rfemur -8.19646 2.28482 20.7808
rtibia 36.9108
rfoot -24.5475 -7.82087
rtoes 4.26061
lfemur 0.54498 4.22081 -19.9936
ltibia 26.0395
lfoot -24.852 15.0417
ltoes 8.63469
2
root 47.7387 15.8817 13.6706 174.769 -47.9018 -177.715
lowerback 0.263918 -1.37684 0.274552
upperback 3.97154 -1.96354 0.555622
thorax 3.9475 -1.02255 0.35279
lowerneck -4.53454 -2.66532 -1.86744
upperneck 7.81479 -4.33663 8.09679
head 3.62849 -1.98168 2.84048
rclavicle 6.05998e-014 -6.01324e-015
rhumerus -30.9338 -5.52119 -84.0673
rradius 30.5694
rwrist 0.14525
rhand -18.5688 -6.0708
rfingers 7.12502
rthumb 7.7214 -35.9098
lclavicle 6.05998e-014 -6.01324e-015
lhumerus -30.2586 17.8509 80.0442
lradius 24.1756
lwrist 22.1557
lhand -15.5568 7.98097
lfingers 7.12502
lthumb 10.6277 37.6922
rfemur -8.19238 2.33432 20.8297
rtibia 36.8742
rfoot -24.5399 -7.6876
rtoes 4.69991
lfemur 0.519517 4.36643 -19.9888
ltibia 26.0283
lfoot -24.5531 15.5699
ltoes 7.06564
3
root 47.7391 15.8826 13.6681 174.784 -47.8065 -177.727
lowerback 0.216801 -1.36224 0.272057
upperback 3.99283 -1.94472 0.546167
thorax 3.99595 -1.0132 0.343376
lowerneck -4.537 -2.66312 -1.80296
upperneck 7.84585 -4.33223 8.0106
head 3.63411 -1.97963 2.79886
rclavicle 4.20305e-014 -3.8266e-015
rhumerus -30.9758 -5.42456 -84.1232
rradius 30.706
rwrist 0.0375876
rhand -18.6285 -6.15098
rfingers 7.12502
rthumb 7.6637 -35.9921
lclavicle 4.20305e-014 -3.8266e-015
lhumerus -30.2061 17.8474 80.0477
lradius 24.1623
lwrist 22.081
lhand -15.6497 7.78799
lfingers 7.12502
lthumb 10.538 37.5038
rfemur -8.18351 2.37976 20.8363
rtibia 36.8472
rfoot -24.5236 -7.68056
rtoes 4.69431
lfemur 0.56282 4.13497 -20.0449
ltibia 25.9928
lfoot -24.8818 15.5791
ltoes 8.16633
4
root 47.7397 15.8839 13.6668 174.806 -47.7547 -177.729
lowerback 0.182614 -1.37745 0.262625
upperback 3.99891 -1.96575 0.559327
thorax 4.02257 -1.02426 0.360417
lowerneck -4.495 -2.67787 -1.7877
upperneck 7.82076 -4.34362 7.9463
head 3.61481 -1.98785 2.77299
rclavicle -5.38551e-014 7.05686e-015
rhumerus -30.9969 -5.35148 -84.1195
rradius 30.7735
rwrist 0.0171067
rhand -18.5752 -6.17008
rfingers 7.12502
rthumb 7.71514 -36.0093
lclavicle -5.38551e-014 7.05686e-015
lhumerus -30.145 17.87 80.0727
lradius 24.1209
lwrist 22.0876
lhand -15.6927 7.81309
lfingers 7.12502
lthumb 10.4966 37.531
rfemur -8.19586 2.36131 20.8322
rtibia 36.8215
rfoot -24.51 -7.58887
rtoes 4.85591
lfemur 0.541887 4.35083 -20.0251
ltibia 25.9651
lfoot -24.4913 15.925
ltoes 6.54942
5
root 47.7401 15.8848 13.6651 174.817 -47.6889 -177.722
lowerback 0.141562 -1.38261 0.260996
upperback 4.01133 -1.97373 0.569184
thorax 4.05922 -1.02856 0.369817
lowerneck -4.49129 -2.67707 -1.76389
upperneck 7.82581 -4.33712 7.88021
head 3.61213 -1.98566 2.74594
rclavicle 3.86201e-014 1.63997e-015
rhumerus -31.022 -5.27811 -84.1286
rradius 30.8543
rwrist -0.0275526
rhand -18.571 -6.18129
rfingers 7.12502
rthumb 7.71919 -36.0204
lclavicle 3.86201e-014 1.63997e-015
lhumerus -30.0988 17.8948 80.0891
lradius 24.1052
lwrist 22.0515
lhand -15.7208 7.77767
lfingers 7.12502
lthumb 10.4695 37.497
rfemur -8.20444 2.36477 20.8409
rtibia 36.8003
rfoot -24.4972 -7.5184
rtoes 4.97583
lfemur 0.547052 4.41639 -20.0184
ltibia 25.9272
lfoot -24.3465 16.1345
ltoes 5.89625
6
root 47.7406 15.8856 13.6634 174.823 -47.6293 -177.707
lowerback 0.101628 -1.3914 0.260697
upperback 4.02374 -1.98672 0.582029
thorax 4.09534 -1.03539 0.381396
lowerneck -4.50037 -2.67185 -1.74149
upperneck 7.83007 -4.32489 7.81892
head 3.61158 -1.9802 2.72104
rclavicle -3.47376e-014 3.35449e-015
rhumerus -31.0457 -5.20808 -84.1315
rradius 30.9227
rwrist -0.0666606
rhand -18.5491 -6.19392
rfingers 7.12502
rthumb 7.74038 -36.0322
lclavicle -3.47376e-014 3.35449e-015
lhumerus -30.059 17.9241 80.1017
lradius 24.0964
lwrist 22.0023
lhand -15.7217 7.76505
lfingers 7.12502
lthumb 10.4686 37.4844
rfemur -8.21625 2.35955 20.8526
rtibia 36.7842
rfoot -24.4817 -7.45278
rtoes 5.05233
lfemur 0.548791 4.5023 -19.994
ltibia 25.8988
lfoot -24.1967 16.2894
ltoes 5.254
7
root 47.741 15.8859 13.6619 174.816 -47.5746 -177.679
lowerback 0.0659138 -1.4039 0.26592
upperback 4.03542 -2.00502 0.599773
thorax 4.12836 -1.04481 0.39486
lowerneck -4.51789 -2.66236 -1.7236
upperneck 7.83078 -4.30689 7.76472
head 3.61153 -1.97164 2.69968
rclavicle 8.16555e-014 -9.74045e-015
rhumerus -31.0706 -5.13873 -84.1265
rradius 30.9794
rwrist -0.0979391
rhand -18.5143 -6.20046
rfingers 7.12502
rthumb 7.77393 -36.0376
lclavicle 8.16555e-014 -9.74045e-015
lhumerus -30.0233 17.9607 80.1111
lradius 24.0913
lwrist 21.9391
lhand -15.6945 7.7746
lfingers 7.12502
lthumb 10.4949 37.4926
rfemur -8.22833 2.34636 20.8719
rtibia 36.7727
rfoot -24.4629 -7.38856
rtoes 5.1002
lfemur 0.555301 4.61669 -19.9479
ltibia 25.8684
lfoot -24.0307 16.3996
ltoes 4.58386
8
root 47.7413 15.8859 13.6603 174.805 -47.5245 -177.645
lowerback 0.0305794 -1.41794 0.27217
upperback 4.0456 -2.02541 0.619187
thorax 4.15965 -1.05524 0.409413
lowerneck -4.54594 -2.64881 -1.71022
upperneck 7.83311 -4.28473 7.7241
head 3.61455 -1.96051 2.68405
rclavicle 4.7595e-014 -1.35422e-015
rhumerus -31.0997 -5.0777 -84.1152
rradius 31.0244
rwrist -0.11997
rhand -18.467 -6.20539
rfingers 7.12502
rthumb 7.81961 -36.0408
lclavicle 4.7595e-014 -1.35422e-015
lhumerus -29.9909 17.9996 80.1162
lradius 24.0903
lwrist 21.8559
lhand -15.6437 7.81563
lfingers 7.12502
lthumb 10.5439 37.5312
rfemur -8.24416 2.33179 20.8951
rtibia 36.7679
rfoot -24.4457 -7.32672
rtoes 5.135
lfemur 0.568184 4.71897 -19.8892
ltibia 25.8358
lfoot -23.9244 16.4192
ltoes 4.16854
9
root 47.7417 15.8855 13.6588 174.79 -47.4816 -177.606
lowerback 6.5925e-005 -1.4349 0.278293
upperback 4.05182 -2.04959 0.640745
thorax 4.18423 -1.06758 0.426295
lowerneck -4.57308 -2.63525 -1.69571
upperneck 7.82798 -4.26293 7.69119
head 3.61508 -1.94948 2.67081
rclavicle -1.46837e-014 7.87684e-015
rhumerus -31.1337 -5.02543 -84.0954
rradius 31.0555
rwrist -0.130789
rhand -18.4079 -6.21151
rfingers 7.12502
rthumb 7.87669 -36.0448
lclavicle -1.46837e-014 7.87684e-015
lhumerus -29.959 18.041 80.1182
lradius 24.0861
lwrist 21.7622
lhand -15.5819 7.86999
lfingers 7.12502
lthumb 10.6035 37.5825
rfemur -8.26471 2.31278 20.9223
rtibia 36.7711
rfoot -24.4275 -7.26999
rtoes 5.14617
lfemur 0.579709 4.86252 -19.814
ltibia 25.8001
lfoot -23.7853 16.4124
ltoes 3.64327
